<svg xmlns="http://www.w3.org/2000/svg" width="36" height="42"><defs><filter id="a" width="56" height="62" x="-10" y="-10" filterUnits="userSpaceOnUse"><feOffset dy="1" in="SourceGraphic" result="FeOffset1032Out"/><feGaussianBlur in="FeOffset1032Out" result="FeGaussianBlur1033Out" stdDeviation="0 0"/></filter><filter id="d" width="200%" height="200%" x="-50%" y="-50%"><feGaussianBlur in="SourceGraphic" result="FeGaussianBlur1054Out" stdDeviation="0 0"/></filter><mask id="b" width="2" height="2" x="-1" y="-1"><path fill="#fff" d="M0 0h36v41H0z"/><path d="M33.23 17.705c-1.971 2.482-4.327 3.866-5.262 3.09a.616.616 0 01-.218-.327c-.695.3-1.273.34-1.626.047-.46-.382-.244-.969.442-1.899l-.02-.016c-.051-.042.15-.604-.107-.817-.2-.167-.482-.227-.614-.06l-.312.391c-.428.54-1.361.672-1.894.23l-1.273-1.057c.132.11.15.313.043.448a.309.309 0 01-.438.047l-.142-.118c.092.076-.188.534-.394.794-1.04 1.308-2.567 2.108-3.703 2.23.463.578.655 1.132.437 1.407-.161.202-.512.213-.943.068a2.221 2.221 0 01-.46 1.629c-.64.806-2.748 2.036-4.575 4.334-1.882 2.37-6.43 9.521-7.581 10.971-1.32 1.663-3.133 2.4-4.045 1.642l-.04-.029c-.912-.757-.58-2.72.74-4.382 1.151-1.45 7.059-7.463 8.94-9.833 1.827-2.3 2.579-4.672 3.22-5.478a2.125 2.125 0 011.464-.795c-.226-.401-.289-.754-.128-.957.219-.275.789-.195 1.436.15a3.067 3.067 0 01-.016-.285c.23-.226.881-.916 1.151-1.77.33-1.046 1.687-1.872 1.124-2.34-.563-.468-1.346 1.024-1.62 2.25a6.856 6.856 0 01-.677 1.824c.001-1.144.474-2.66 1.414-3.845.206-.26.587-.633.678-.557l-.142-.117c-.133-.111-.168-.293-.062-.427.108-.134.287-.137.42-.026l-1.206-1.002c-.174-.146-.227-.4-.303-.598.389-.014 2.775-3.271 4.123-4.967 1.393-1.755 3.002-3.699 2.862-3.984 0 0-1.377 1.392-3.213 3.705-1.662 2.091-3.46 4.552-3.61 5.152-.096-.377.129-.66.385-.983l.383-.482c.092-.116-.256-.511-.419-.646-.256-.213-.972-.082-1.023-.124l-.02-.017c-.75.877-1.269 1.215-1.728.834-.353-.294-.428-.885-.287-1.641a.604.604 0 01-.36-.148c-.934-.777-.098-3.413 1.873-5.894C17.876.845 20.224-.53 21.158.247a.648.648 0 01.2.35c.695-.298 1.236-.295 1.589-.001.443.368.231.958-.447 1.895l.022.018c-.007-.006.076.05.046.088-.237.297-.048.721.245.965.164.136.622.39.715.274l.365-.459c.428-.54.71-.64 1.243-.197l6.275 5.213c.534.444.94 1.112.511 1.652l-.294.37c-.134.169-.06.488.143.656.294.244.627.187.862-.111.017-.022.022-.03.02-.034l.017.013c.757-.871 1.28-1.203 1.722-.835.353.293.501.793.358 1.55a.6.6 0 01.359.15c.935.777.093 3.418-1.879 5.9zm-.584-6.785c.003.002.007.003.008.006zM19.441.389s-1.426.912-2.907 2.86c-1.48 1.948-2.676 4.17-2.676 4.17s2.928-4.57 5.583-7.03zM21.46 2.47s.014-1.4-.263-1.772c-.116-.158-.143-.34-.295-.322.055-.125.043-.198-.053-.206 0 0-1.872 1.726-3.457 3.722-1.587 1.997-3.227 5.03-3.252 5.145-.023.108 1.659-2.266 3.356-4.432 1.404-1.352 1.988-2.322 2.47-1.99.48.332 1.266.647 1.494-.145zm-.348 1.572c.394-.496.623-.971.511-1.063-.111-.094-.52.233-.913.728s-.622.972-.511 1.064c.111.091.52-.234.913-.729zm.853.86c.255-.321.317-.7.14-.848-.18-.148-.53-.008-.784.313-.255.32-.317.7-.139.848.178.148.528.008.783-.313zm-6.97 15.405c.139.116.407.015.598-.226.191-.24.232-.529.093-.645-.14-.117-.408-.016-.598.225-.191.24-.233.53-.094.646zm-.304.382c-.425-.05-.74.23-1.051 1.324-.313 1.094-2.144 3.258-5.188 6.884-3.043 3.628-3.948 4.127-5.164 5.62C2.073 36.01.277 38.306.784 38.728c.507.421 1.324-.626 5.232-5.969 3.909-5.342 5.664-6.961 7.414-8.956 1.752-1.995 1.823-3.049 1.26-3.113zm9.199-4.26l6.02-7.578c.312-.395.733-.58 1.15-.316a4.72 4.72 0 00-.196-.179s.22-.224-2.64-2.6c-2.726-2.264-2.946-2.04-2.946-2.04-.033-.03 0 .01-.038-.015.336.362.522 1.049.21 1.443l-6.02 7.58c-.242.304-.708.349-1.06.268 0 0-.361.104 2.302 2.316 2.718 2.259 2.982 2.073 2.982 2.073-.15-.337-.006-.648.236-.952zm3.276-1.897c1.837-2.312 3.937-4.998 3.675-5.215-.262-.218-2.69 3.135-4.084 4.889-1.393 1.754-2.983 3.715-2.843 4 0 0 1.415-1.361 3.252-3.674zm3.609-2.312c.255-.32.326-.692.16-.83-.167-.139-.508.009-.763.33-.256.32-.327.693-.16.831.166.139.508-.01.763-.33zm2.338.71c.858-1.081.372-1.653.053-1.68-.01-.01.005.023-.017.034-.345.089-.99 1.259-.99 1.259l-.002.001c-.494.623-1.114 1.303-1.524 1.82-.879 1.107-1.948 2.287-1.872 2.457 0 0 .882-.866 2.04-2.325.351-.444.72-.91 1.058-1.346.028-.029.058-.062.093-.103.114-.142.218-.296.315-.434l.11-.148c.166-.211.313-.331.457-.174.256.28-1.015 1.727-1.13 2.038-.112.31.551-.32 1.409-1.4z"/></mask><mask id="e"><path fill="#fff" d="M33.23 17.705c-1.971 2.482-4.327 3.866-5.262 3.09a.616.616 0 01-.218-.327c-.695.3-1.273.34-1.626.047-.46-.382-.244-.969.442-1.899l-.02-.016c-.051-.042.15-.604-.107-.817-.2-.167-.482-.227-.614-.06l-.312.391c-.428.54-1.361.672-1.894.23l-1.273-1.057c.132.11.15.313.043.448a.309.309 0 01-.438.047l-.142-.118c.092.076-.188.534-.394.794-1.04 1.308-2.567 2.108-3.703 2.23.463.578.655 1.132.437 1.407-.161.202-.512.213-.943.068a2.221 2.221 0 01-.46 1.629c-.64.806-2.748 2.036-4.575 4.334-1.882 2.37-6.43 9.521-7.581 10.971-1.32 1.663-3.133 2.4-4.045 1.642l-.04-.029c-.912-.757-.58-2.72.74-4.382 1.151-1.45 7.059-7.463 8.94-9.833 1.827-2.3 2.579-4.672 3.22-5.478a2.125 2.125 0 011.464-.795c-.226-.401-.289-.754-.128-.957.219-.275.789-.195 1.436.15a3.067 3.067 0 01-.016-.285c.23-.226.881-.916 1.151-1.77.33-1.046 1.687-1.872 1.124-2.34-.563-.468-1.346 1.024-1.62 2.25a6.856 6.856 0 01-.677 1.824c.001-1.144.474-2.66 1.414-3.845.206-.26.587-.633.678-.557l-.142-.117c-.133-.111-.168-.293-.062-.427.108-.134.287-.137.42-.026l-1.206-1.002c-.174-.146-.227-.4-.303-.598.389-.014 2.775-3.271 4.123-4.967 1.393-1.755 3.002-3.699 2.862-3.984 0 0-1.377 1.392-3.213 3.705-1.662 2.091-3.46 4.552-3.61 5.152-.096-.377.129-.66.385-.983l.383-.482c.092-.116-.256-.511-.419-.646-.256-.213-.972-.082-1.023-.124l-.02-.017c-.75.877-1.269 1.215-1.728.834-.353-.294-.428-.885-.287-1.641a.604.604 0 01-.36-.148c-.934-.777-.098-3.413 1.873-5.894C17.876.845 20.224-.53 21.158.247a.648.648 0 01.2.35c.695-.298 1.236-.295 1.589-.001.443.368.231.958-.447 1.895l.022.018c-.007-.006.076.05.046.088-.237.297-.048.721.245.965.164.136.622.39.715.274l.365-.459c.428-.54.71-.64 1.243-.197l6.275 5.213c.534.444.94 1.112.511 1.652l-.294.37c-.134.169-.06.488.143.656.294.244.627.187.862-.111.017-.022.022-.03.02-.034l.017.013c.757-.871 1.28-1.203 1.722-.835.353.293.501.793.358 1.55a.6.6 0 01.359.15c.935.777.093 3.418-1.879 5.9zm-.584-6.785c.003.002.007.003.008.006zM19.441.389s-1.426.912-2.907 2.86c-1.48 1.948-2.676 4.17-2.676 4.17s2.928-4.57 5.583-7.03zM21.46 2.47s.014-1.4-.263-1.772c-.116-.158-.143-.34-.295-.322.055-.125.043-.198-.053-.206 0 0-1.872 1.726-3.457 3.722-1.587 1.997-3.227 5.03-3.252 5.145-.023.108 1.659-2.266 3.356-4.432 1.404-1.352 1.988-2.322 2.47-1.99.48.332 1.266.647 1.494-.145zm-.348 1.572c.394-.496.623-.971.511-1.063-.111-.094-.52.233-.913.728s-.622.972-.511 1.064c.111.091.52-.234.913-.729zm.853.86c.255-.321.317-.7.14-.848-.18-.148-.53-.008-.784.313-.255.32-.317.7-.139.848.178.148.528.008.783-.313zm-6.97 15.405c.139.116.407.015.598-.226.191-.24.232-.529.093-.645-.14-.117-.408-.016-.598.225-.191.24-.233.53-.094.646zm-.304.382c-.425-.05-.74.23-1.051 1.324-.313 1.094-2.144 3.258-5.188 6.884-3.043 3.628-3.948 4.127-5.164 5.62C2.073 36.01.277 38.306.784 38.728c.507.421 1.324-.626 5.232-5.969 3.909-5.342 5.664-6.961 7.414-8.956 1.752-1.995 1.823-3.049 1.26-3.113zm9.199-4.26l6.02-7.578c.312-.395.733-.58 1.15-.316a4.72 4.72 0 00-.196-.179s.22-.224-2.64-2.6c-2.726-2.264-2.946-2.04-2.946-2.04-.033-.03 0 .01-.038-.015.336.362.522 1.049.21 1.443l-6.02 7.58c-.242.304-.708.349-1.06.268 0 0-.361.104 2.302 2.316 2.718 2.259 2.982 2.073 2.982 2.073-.15-.337-.006-.648.236-.952zm3.276-1.897c1.837-2.312 3.937-4.998 3.675-5.215-.262-.218-2.69 3.135-4.084 4.889-1.393 1.754-2.983 3.715-2.843 4 0 0 1.415-1.361 3.252-3.674zm3.609-2.312c.255-.32.326-.692.16-.83-.167-.139-.508.009-.763.33-.256.32-.327.693-.16.831.166.139.508-.01.763-.33zm2.338.71c.858-1.081.372-1.653.053-1.68-.01-.01.005.023-.017.034-.345.089-.99 1.259-.99 1.259l-.002.001c-.494.623-1.114 1.303-1.524 1.82-.879 1.107-1.948 2.287-1.872 2.457 0 0 .882-.866 2.04-2.325.351-.444.72-.91 1.058-1.346.028-.029.058-.062.093-.103.114-.142.218-.296.315-.434l.11-.148c.166-.211.313-.331.457-.174.256.28-1.015 1.727-1.13 2.038-.112.31.551-.32 1.409-1.4z"/></mask><linearGradient id="c" x1="17.49" x2="17.99" y1="41.04" y2=".03" gradientUnits="userSpaceOnUse"><stop offset="0" stop-opacity=".17"/><stop offset="1" stop-color="#fff" stop-opacity=".17"/></linearGradient></defs><g filter="url(#a)"><path fill="none" d="M33.23 17.705c-1.971 2.482-4.327 3.866-5.262 3.09a.616.616 0 01-.218-.327c-.695.3-1.273.34-1.626.047-.46-.382-.244-.969.442-1.899l-.02-.016c-.051-.042.15-.604-.107-.817-.2-.167-.482-.227-.614-.06l-.312.391c-.428.54-1.361.672-1.894.23l-1.273-1.057c.132.11.15.313.043.448a.309.309 0 01-.438.047l-.142-.118c.092.076-.188.534-.394.794-1.04 1.308-2.567 2.108-3.703 2.23.463.578.655 1.132.437 1.407-.161.202-.512.213-.943.068a2.221 2.221 0 01-.46 1.629c-.64.806-2.748 2.036-4.575 4.334-1.882 2.37-6.43 9.521-7.581 10.971-1.32 1.663-3.133 2.4-4.045 1.642l-.04-.029c-.912-.757-.58-2.72.74-4.382 1.151-1.45 7.059-7.463 8.94-9.833 1.827-2.3 2.579-4.672 3.22-5.478a2.125 2.125 0 011.464-.795c-.226-.401-.289-.754-.128-.957.219-.275.789-.195 1.436.15a3.067 3.067 0 01-.016-.285c.23-.226.881-.916 1.151-1.77.33-1.046 1.687-1.872 1.124-2.34-.563-.468-1.346 1.024-1.62 2.25a6.856 6.856 0 01-.677 1.824c.001-1.144.474-2.66 1.414-3.845.206-.26.587-.633.678-.557l-.142-.117c-.133-.111-.168-.293-.062-.427.108-.134.287-.137.42-.026l-1.206-1.002c-.174-.146-.227-.4-.303-.598.389-.014 2.775-3.271 4.123-4.967 1.393-1.755 3.002-3.699 2.862-3.984 0 0-1.377 1.392-3.213 3.705-1.662 2.091-3.46 4.552-3.61 5.152-.096-.377.129-.66.385-.983l.383-.482c.092-.116-.256-.511-.419-.646-.256-.213-.972-.082-1.023-.124l-.02-.017c-.75.877-1.269 1.215-1.728.834-.353-.294-.428-.885-.287-1.641a.604.604 0 01-.36-.148c-.934-.777-.098-3.413 1.873-5.894C17.876.845 20.224-.53 21.158.247a.648.648 0 01.2.35c.695-.298 1.236-.295 1.589-.001.443.368.231.958-.447 1.895l.022.018c-.007-.006.076.05.046.088-.237.297-.048.721.245.965.164.136.622.39.715.274l.365-.459c.428-.54.71-.64 1.243-.197l6.275 5.213c.534.444.94 1.112.511 1.652l-.294.37c-.134.169-.06.488.143.656.294.244.627.187.862-.111.017-.022.022-.03.02-.034l.017.013c.757-.871 1.28-1.203 1.722-.835.353.293.501.793.358 1.55a.6.6 0 01.359.15c.935.777.093 3.418-1.879 5.9zm-.584-6.785c.003.002.007.003.008.006zM19.441.389s-1.426.912-2.907 2.86c-1.48 1.948-2.676 4.17-2.676 4.17s2.928-4.57 5.583-7.03zM21.46 2.47s.014-1.4-.263-1.772c-.116-.158-.143-.34-.295-.322.055-.125.043-.198-.053-.206 0 0-1.872 1.726-3.457 3.722-1.587 1.997-3.227 5.03-3.252 5.145-.023.108 1.659-2.266 3.356-4.432 1.404-1.352 1.988-2.322 2.47-1.99.48.332 1.266.647 1.494-.145zm-.348 1.572c.394-.496.623-.971.511-1.063-.111-.094-.52.233-.913.728s-.622.972-.511 1.064c.111.091.52-.234.913-.729zm.853.86c.255-.321.317-.7.14-.848-.18-.148-.53-.008-.784.313-.255.32-.317.7-.139.848.178.148.528.008.783-.313zm-6.97 15.405c.139.116.407.015.598-.226.191-.24.232-.529.093-.645-.14-.117-.408-.016-.598.225-.191.24-.233.53-.094.646zm-.304.382c-.425-.05-.74.23-1.051 1.324-.313 1.094-2.144 3.258-5.188 6.884-3.043 3.628-3.948 4.127-5.164 5.62C2.073 36.01.277 38.306.784 38.728c.507.421 1.324-.626 5.232-5.969 3.909-5.342 5.664-6.961 7.414-8.956 1.752-1.995 1.823-3.049 1.26-3.113zm9.199-4.26l6.02-7.578c.312-.395.733-.58 1.15-.316a4.72 4.72 0 00-.196-.179s.22-.224-2.64-2.6c-2.726-2.264-2.946-2.04-2.946-2.04-.033-.03 0 .01-.038-.015.336.362.522 1.049.21 1.443l-6.02 7.58c-.242.304-.708.349-1.06.268 0 0-.361.104 2.302 2.316 2.718 2.259 2.982 2.073 2.982 2.073-.15-.337-.006-.648.236-.952zm3.276-1.897c1.837-2.312 3.937-4.998 3.675-5.215-.262-.218-2.69 3.135-4.084 4.889-1.393 1.754-2.983 3.715-2.843 4 0 0 1.415-1.361 3.252-3.674zm3.609-2.312c.255-.32.326-.692.16-.83-.167-.139-.508.009-.763.33-.256.32-.327.693-.16.831.166.139.508-.01.763-.33zm2.338.71c.858-1.081.372-1.653.053-1.68-.01-.01.005.023-.017.034-.345.089-.99 1.259-.99 1.259l-.002.001c-.494.623-1.114 1.303-1.524 1.82-.879 1.107-1.948 2.287-1.872 2.457 0 0 .882-.866 2.04-2.325.351-.444.72-.91 1.058-1.346.028-.029.058-.062.093-.103.114-.142.218-.296.315-.434l.11-.148c.166-.211.313-.331.457-.174.256.28-1.015 1.727-1.13 2.038-.112.31.551-.32 1.409-1.4z" mask="url(&quot;#b&quot;)"/><path fill="#6f511c" d="M33.23 17.705c-1.971 2.482-4.327 3.866-5.262 3.09a.616.616 0 01-.218-.327c-.695.3-1.273.34-1.626.047-.46-.382-.244-.969.442-1.899l-.02-.016c-.051-.042.15-.604-.107-.817-.2-.167-.482-.227-.614-.06l-.312.391c-.428.54-1.361.672-1.894.23l-1.273-1.057c.132.11.15.313.043.448a.309.309 0 01-.438.047l-.142-.118c.092.076-.188.534-.394.794-1.04 1.308-2.567 2.108-3.703 2.23.463.578.655 1.132.437 1.407-.161.202-.512.213-.943.068a2.221 2.221 0 01-.46 1.629c-.64.806-2.748 2.036-4.575 4.334-1.882 2.37-6.43 9.521-7.581 10.971-1.32 1.663-3.133 2.4-4.045 1.642l-.04-.029c-.912-.757-.58-2.72.74-4.382 1.151-1.45 7.059-7.463 8.94-9.833 1.827-2.3 2.579-4.672 3.22-5.478a2.125 2.125 0 011.464-.795c-.226-.401-.289-.754-.128-.957.219-.275.789-.195 1.436.15a3.067 3.067 0 01-.016-.285c.23-.226.881-.916 1.151-1.77.33-1.046 1.687-1.872 1.124-2.34-.563-.468-1.346 1.024-1.62 2.25a6.856 6.856 0 01-.677 1.824c.001-1.144.474-2.66 1.414-3.845.206-.26.587-.633.678-.557l-.142-.117c-.133-.111-.168-.293-.062-.427.108-.134.287-.137.42-.026l-1.206-1.002c-.174-.146-.227-.4-.303-.598.389-.014 2.775-3.271 4.123-4.967 1.393-1.755 3.002-3.699 2.862-3.984 0 0-1.377 1.392-3.213 3.705-1.662 2.091-3.46 4.552-3.61 5.152-.096-.377.129-.66.385-.983l.383-.482c.092-.116-.256-.511-.419-.646-.256-.213-.972-.082-1.023-.124l-.02-.017c-.75.877-1.269 1.215-1.728.834-.353-.294-.428-.885-.287-1.641a.604.604 0 01-.36-.148c-.934-.777-.098-3.413 1.873-5.894C17.876.845 20.224-.53 21.158.247a.648.648 0 01.2.35c.695-.298 1.236-.295 1.589-.001.443.368.231.958-.447 1.895l.022.018c-.007-.006.076.05.046.088-.237.297-.048.721.245.965.164.136.622.39.715.274l.365-.459c.428-.54.71-.64 1.243-.197l6.275 5.213c.534.444.94 1.112.511 1.652l-.294.37c-.134.169-.06.488.143.656.294.244.627.187.862-.111.017-.022.022-.03.02-.034l.017.013c.757-.871 1.28-1.203 1.722-.835.353.293.501.793.358 1.55a.6.6 0 01.359.15c.935.777.093 3.418-1.879 5.9zm-.584-6.785c.003.002.007.003.008.006zM19.441.389s-1.426.912-2.907 2.86c-1.48 1.948-2.676 4.17-2.676 4.17s2.928-4.57 5.583-7.03zM21.46 2.47s.014-1.4-.263-1.772c-.116-.158-.143-.34-.295-.322.055-.125.043-.198-.053-.206 0 0-1.872 1.726-3.457 3.722-1.587 1.997-3.227 5.03-3.252 5.145-.023.108 1.659-2.266 3.356-4.432 1.404-1.352 1.988-2.322 2.47-1.99.48.332 1.266.647 1.494-.145zm-.348 1.572c.394-.496.623-.971.511-1.063-.111-.094-.52.233-.913.728s-.622.972-.511 1.064c.111.091.52-.234.913-.729zm.853.86c.255-.321.317-.7.14-.848-.18-.148-.53-.008-.784.313-.255.32-.317.7-.139.848.178.148.528.008.783-.313zm-6.97 15.405c.139.116.407.015.598-.226.191-.24.232-.529.093-.645-.14-.117-.408-.016-.598.225-.191.24-.233.53-.094.646zm-.304.382c-.425-.05-.74.23-1.051 1.324-.313 1.094-2.144 3.258-5.188 6.884-3.043 3.628-3.948 4.127-5.164 5.62C2.073 36.01.277 38.306.784 38.728c.507.421 1.324-.626 5.232-5.969 3.909-5.342 5.664-6.961 7.414-8.956 1.752-1.995 1.823-3.049 1.26-3.113zm9.199-4.26l6.02-7.578c.312-.395.733-.58 1.15-.316a4.72 4.72 0 00-.196-.179s.22-.224-2.64-2.6c-2.726-2.264-2.946-2.04-2.946-2.04-.033-.03 0 .01-.038-.015.336.362.522 1.049.21 1.443l-6.02 7.58c-.242.304-.708.349-1.06.268 0 0-.361.104 2.302 2.316 2.718 2.259 2.982 2.073 2.982 2.073-.15-.337-.006-.648.236-.952zm3.276-1.897c1.837-2.312 3.937-4.998 3.675-5.215-.262-.218-2.69 3.135-4.084 4.889-1.393 1.754-2.983 3.715-2.843 4 0 0 1.415-1.361 3.252-3.674zm3.609-2.312c.255-.32.326-.692.16-.83-.167-.139-.508.009-.763.33-.256.32-.327.693-.16.831.166.139.508-.01.763-.33zm2.338.71c.858-1.081.372-1.653.053-1.68-.01-.01.005.023-.017.034-.345.089-.99 1.259-.99 1.259l-.002.001c-.494.623-1.114 1.303-1.524 1.82-.879 1.107-1.948 2.287-1.872 2.457 0 0 .882-.866 2.04-2.325.351-.444.72-.91 1.058-1.346.028-.029.058-.062.093-.103.114-.142.218-.296.315-.434l.11-.148c.166-.211.313-.331.457-.174.256.28-1.015 1.727-1.13 2.038-.112.31.551-.32 1.409-1.4z"/></g><path fill="#bb9c66" d="M33.23 17.705c-1.971 2.482-4.327 3.866-5.262 3.09a.616.616 0 01-.218-.327c-.695.3-1.273.34-1.626.047-.46-.382-.244-.969.442-1.899l-.02-.016c-.051-.042.15-.604-.107-.817-.2-.167-.482-.227-.614-.06l-.312.391c-.428.54-1.361.672-1.894.23l-1.273-1.057c.132.11.15.313.043.448a.309.309 0 01-.438.047l-.142-.118c.092.076-.188.534-.394.794-1.04 1.308-2.567 2.108-3.703 2.23.463.578.655 1.132.437 1.407-.161.202-.512.213-.943.068a2.221 2.221 0 01-.46 1.629c-.64.806-2.748 2.036-4.575 4.334-1.882 2.37-6.43 9.521-7.581 10.971-1.32 1.663-3.133 2.4-4.045 1.642l-.04-.029c-.912-.757-.58-2.72.74-4.382 1.151-1.45 7.059-7.463 8.94-9.833 1.827-2.3 2.579-4.672 3.22-5.478a2.125 2.125 0 011.464-.795c-.226-.401-.289-.754-.128-.957.219-.275.789-.195 1.436.15a3.067 3.067 0 01-.016-.285c.23-.226.881-.916 1.151-1.77.33-1.046 1.687-1.872 1.124-2.34-.563-.468-1.346 1.024-1.62 2.25a6.856 6.856 0 01-.677 1.824c.001-1.144.474-2.66 1.414-3.845.206-.26.587-.633.678-.557l-.142-.117c-.133-.111-.168-.293-.062-.427.108-.134.287-.137.42-.026l-1.206-1.002c-.174-.146-.227-.4-.303-.598.389-.014 2.775-3.271 4.123-4.967 1.393-1.755 3.002-3.699 2.862-3.984 0 0-1.377 1.392-3.213 3.705-1.662 2.091-3.46 4.552-3.61 5.152-.096-.377.129-.66.385-.983l.383-.482c.092-.116-.256-.511-.419-.646-.256-.213-.972-.082-1.023-.124l-.02-.017c-.75.877-1.269 1.215-1.728.834-.353-.294-.428-.885-.287-1.641a.604.604 0 01-.36-.148c-.934-.777-.098-3.413 1.873-5.894C17.876.845 20.224-.53 21.158.247a.648.648 0 01.2.35c.695-.298 1.236-.295 1.589-.001.443.368.231.958-.447 1.895l.022.018c-.007-.006.076.05.046.088-.237.297-.048.721.245.965.164.136.622.39.715.274l.365-.459c.428-.54.71-.64 1.243-.197l6.275 5.213c.534.444.94 1.112.511 1.652l-.294.37c-.134.169-.06.488.143.656.294.244.627.187.862-.111.017-.022.022-.03.02-.034l.017.013c.757-.871 1.28-1.203 1.722-.835.353.293.501.793.358 1.55a.6.6 0 01.359.15c.935.777.093 3.418-1.879 5.9zm-.584-6.785c.003.002.007.003.008.006zM19.441.389s-1.426.912-2.907 2.86c-1.48 1.948-2.676 4.17-2.676 4.17s2.928-4.57 5.583-7.03zM21.46 2.47s.014-1.4-.263-1.772c-.116-.158-.143-.34-.295-.322.055-.125.043-.198-.053-.206 0 0-1.872 1.726-3.457 3.722-1.587 1.997-3.227 5.03-3.252 5.145-.023.108 1.659-2.266 3.356-4.432 1.404-1.352 1.988-2.322 2.47-1.99.48.332 1.266.647 1.494-.145zm-.348 1.572c.394-.496.623-.971.511-1.063-.111-.094-.52.233-.913.728s-.622.972-.511 1.064c.111.091.52-.234.913-.729zm.853.86c.255-.321.317-.7.14-.848-.18-.148-.53-.008-.784.313-.255.32-.317.7-.139.848.178.148.528.008.783-.313zm-6.97 15.405c.139.116.407.015.598-.226.191-.24.232-.529.093-.645-.14-.117-.408-.016-.598.225-.191.24-.233.53-.094.646zm-.304.382c-.425-.05-.74.23-1.051 1.324-.313 1.094-2.144 3.258-5.188 6.884-3.043 3.628-3.948 4.127-5.164 5.62C2.073 36.01.277 38.306.784 38.728c.507.421 1.324-.626 5.232-5.969 3.909-5.342 5.664-6.961 7.414-8.956 1.752-1.995 1.823-3.049 1.26-3.113zm9.199-4.26l6.02-7.578c.312-.395.733-.58 1.15-.316a4.72 4.72 0 00-.196-.179s.22-.224-2.64-2.6c-2.726-2.264-2.946-2.04-2.946-2.04-.033-.03 0 .01-.038-.015.336.362.522 1.049.21 1.443l-6.02 7.58c-.242.304-.708.349-1.06.268 0 0-.361.104 2.302 2.316 2.718 2.259 2.982 2.073 2.982 2.073-.15-.337-.006-.648.236-.952zm3.276-1.897c1.837-2.312 3.937-4.998 3.675-5.215-.262-.218-2.69 3.135-4.084 4.889-1.393 1.754-2.983 3.715-2.843 4 0 0 1.415-1.361 3.252-3.674zm3.609-2.312c.255-.32.326-.692.16-.83-.167-.139-.508.009-.763.33-.256.32-.327.693-.16.831.166.139.508-.01.763-.33zm2.338.71c.858-1.081.372-1.653.053-1.68-.01-.01.005.023-.017.034-.345.089-.99 1.259-.99 1.259l-.002.001c-.494.623-1.114 1.303-1.524 1.82-.879 1.107-1.948 2.287-1.872 2.457 0 0 .882-.866 2.04-2.325.351-.444.72-.91 1.058-1.346.028-.029.058-.062.093-.103.114-.142.218-.296.315-.434l.11-.148c.166-.211.313-.331.457-.174.256.28-1.015 1.727-1.13 2.038-.112.31.551-.32 1.409-1.4z"/><path fill="url(#c)" d="M33.23 17.705c-1.971 2.482-4.327 3.866-5.262 3.09a.616.616 0 01-.218-.327c-.695.3-1.273.34-1.626.047-.46-.382-.244-.969.442-1.899l-.02-.016c-.051-.042.15-.604-.107-.817-.2-.167-.482-.227-.614-.06l-.312.391c-.428.54-1.361.672-1.894.23l-1.273-1.057c.132.11.15.313.043.448a.309.309 0 01-.438.047l-.142-.118c.092.076-.188.534-.394.794-1.04 1.308-2.567 2.108-3.703 2.23.463.578.655 1.132.437 1.407-.161.202-.512.213-.943.068a2.221 2.221 0 01-.46 1.629c-.64.806-2.748 2.036-4.575 4.334-1.882 2.37-6.43 9.521-7.581 10.971-1.32 1.663-3.133 2.4-4.045 1.642l-.04-.029c-.912-.757-.58-2.72.74-4.382 1.151-1.45 7.059-7.463 8.94-9.833 1.827-2.3 2.579-4.672 3.22-5.478a2.125 2.125 0 011.464-.795c-.226-.401-.289-.754-.128-.957.219-.275.789-.195 1.436.15a3.067 3.067 0 01-.016-.285c.23-.226.881-.916 1.151-1.77.33-1.046 1.687-1.872 1.124-2.34-.563-.468-1.346 1.024-1.62 2.25a6.856 6.856 0 01-.677 1.824c.001-1.144.474-2.66 1.414-3.845.206-.26.587-.633.678-.557l-.142-.117c-.133-.111-.168-.293-.062-.427.108-.134.287-.137.42-.026l-1.206-1.002c-.174-.146-.227-.4-.303-.598.389-.014 2.775-3.271 4.123-4.967 1.393-1.755 3.002-3.699 2.862-3.984 0 0-1.377 1.392-3.213 3.705-1.662 2.091-3.46 4.552-3.61 5.152-.096-.377.129-.66.385-.983l.383-.482c.092-.116-.256-.511-.419-.646-.256-.213-.972-.082-1.023-.124l-.02-.017c-.75.877-1.269 1.215-1.728.834-.353-.294-.428-.885-.287-1.641a.604.604 0 01-.36-.148c-.934-.777-.098-3.413 1.873-5.894C17.876.845 20.224-.53 21.158.247a.648.648 0 01.2.35c.695-.298 1.236-.295 1.589-.001.443.368.231.958-.447 1.895l.022.018c-.007-.006.076.05.046.088-.237.297-.048.721.245.965.164.136.622.39.715.274l.365-.459c.428-.54.71-.64 1.243-.197l6.275 5.213c.534.444.94 1.112.511 1.652l-.294.37c-.134.169-.06.488.143.656.294.244.627.187.862-.111.017-.022.022-.03.02-.034l.017.013c.757-.871 1.28-1.203 1.722-.835.353.293.501.793.358 1.55a.6.6 0 01.359.15c.935.777.093 3.418-1.879 5.9zm-.584-6.785c.003.002.007.003.008.006zM19.441.389s-1.426.912-2.907 2.86c-1.48 1.948-2.676 4.17-2.676 4.17s2.928-4.57 5.583-7.03zM21.46 2.47s.014-1.4-.263-1.772c-.116-.158-.143-.34-.295-.322.055-.125.043-.198-.053-.206 0 0-1.872 1.726-3.457 3.722-1.587 1.997-3.227 5.03-3.252 5.145-.023.108 1.659-2.266 3.356-4.432 1.404-1.352 1.988-2.322 2.47-1.99.48.332 1.266.647 1.494-.145zm-.348 1.572c.394-.496.623-.971.511-1.063-.111-.094-.52.233-.913.728s-.622.972-.511 1.064c.111.091.52-.234.913-.729zm.853.86c.255-.321.317-.7.14-.848-.18-.148-.53-.008-.784.313-.255.32-.317.7-.139.848.178.148.528.008.783-.313zm-6.97 15.405c.139.116.407.015.598-.226.191-.24.232-.529.093-.645-.14-.117-.408-.016-.598.225-.191.24-.233.53-.094.646zm-.304.382c-.425-.05-.74.23-1.051 1.324-.313 1.094-2.144 3.258-5.188 6.884-3.043 3.628-3.948 4.127-5.164 5.62C2.073 36.01.277 38.306.784 38.728c.507.421 1.324-.626 5.232-5.969 3.909-5.342 5.664-6.961 7.414-8.956 1.752-1.995 1.823-3.049 1.26-3.113zm9.199-4.26l6.02-7.578c.312-.395.733-.58 1.15-.316a4.72 4.72 0 00-.196-.179s.22-.224-2.64-2.6c-2.726-2.264-2.946-2.04-2.946-2.04-.033-.03 0 .01-.038-.015.336.362.522 1.049.21 1.443l-6.02 7.58c-.242.304-.708.349-1.06.268 0 0-.361.104 2.302 2.316 2.718 2.259 2.982 2.073 2.982 2.073-.15-.337-.006-.648.236-.952zm3.276-1.897c1.837-2.312 3.937-4.998 3.675-5.215-.262-.218-2.69 3.135-4.084 4.889-1.393 1.754-2.983 3.715-2.843 4 0 0 1.415-1.361 3.252-3.674zm3.609-2.312c.255-.32.326-.692.16-.83-.167-.139-.508.009-.763.33-.256.32-.327.693-.16.831.166.139.508-.01.763-.33zm2.338.71c.858-1.081.372-1.653.053-1.68-.01-.01.005.023-.017.034-.345.089-.99 1.259-.99 1.259l-.002.001c-.494.623-1.114 1.303-1.524 1.82-.879 1.107-1.948 2.287-1.872 2.457 0 0 .882-.866 2.04-2.325.351-.444.72-.91 1.058-1.346.028-.029.058-.062.093-.103.114-.142.218-.296.315-.434l.11-.148c.166-.211.313-.331.457-.174.256.28-1.015 1.727-1.13 2.038-.112.31.551-.32 1.409-1.4z"/><path fill="#f5d295" d="M0 42v-1.369c.041.454.206.831.505 1.08l.04.028c.157.13.34.216.543.261zM0-1h36v43H1.83c.88-.161 1.92-.845 2.76-1.903 1.152-1.45 5.699-8.601 7.581-10.97 1.827-2.3 3.935-3.529 4.575-4.335a2.22 2.22 0 00.46-1.629c.43.145.782.134.943-.068.218-.275.026-.829-.437-1.407 1.136-.122 2.664-.922 3.703-2.23.206-.26.486-.718.394-.794l.142.118a.309.309 0 00.438-.047.325.325 0 00-.043-.448l1.273 1.057c.533.442 1.466.31 1.894-.23l.312-.391c.132-.167.413-.107.614.06.256.213.056.775.107.817l.02.016c-.686.93-.902 1.517-.442 1.899.353.293.93.252 1.626-.047.03.124.104.23.218.326.935.777 3.29-.607 5.262-3.09 1.972-2.482 2.814-5.123 1.879-5.9a.6.6 0 00-.359-.15c.143-.757-.005-1.257-.358-1.55-.442-.368-.965-.036-1.722.835l-.016-.013c0 .004-.004.012-.021.034-.235.298-.568.355-.862.11-.203-.167-.277-.486-.143-.654l.294-.37c.43-.541.023-1.21-.511-1.653L25.136 4.18c-.533-.443-.815-.342-1.243.197l-.365.459c-.093.117-.55-.138-.715-.274-.293-.244-.482-.668-.245-.965.03-.038-.053-.094-.046-.088L22.5 3.49c.678-.937.89-1.527.447-1.895-.353-.294-.894-.297-1.588 0a.648.648 0 00-.2-.348c-.935-.777-3.283.597-5.255 3.079-1.97 2.481-2.807 5.117-1.872 5.894a.604.604 0 00.36.148c-.142.756-.067 1.347.286 1.64.46.382.978.044 1.728-.833l.02.017c.05.042.767-.09 1.023.124.163.135.51.53.419.646l-.383.482c-.256.322-.481.606-.385.983.15-.6 1.948-3.06 3.61-5.152 1.836-2.313 3.213-3.705 3.213-3.705.14.285-1.469 2.229-2.862 3.984-1.348 1.696-3.734 4.953-4.123 4.967.076.198.129.452.303.598l1.207 1.002c-.134-.111-.313-.108-.42.026-.107.134-.072.316.061.427l.142.117c-.091-.076-.472.298-.678.557-.94 1.184-1.413 2.7-1.414 3.845.149-.265.474-.91.676-1.824.275-1.226 1.058-2.718 1.621-2.25.563.468-.795 1.294-1.124 2.34-.27.854-.92 1.544-1.15 1.77 0 .098.006.192.015.285-.647-.345-1.217-.425-1.436-.15-.16.203-.098.556.128.957a2.125 2.125 0 00-1.464.795c-.641.806-1.393 3.179-3.22 5.478-1.881 2.37-7.789 8.382-8.94 9.833C.5 38.265.07 39.298 0 40.156zm32.654 12.926c-.001-.003-.005-.004-.008-.006zM13.858 8.418s1.196-2.22 2.676-4.169c1.481-1.948 2.907-2.86 2.907-2.86-2.655 2.46-5.583 7.03-5.583 7.03zm6.107-4.802c-.48-.332-1.065.638-2.47 1.99-1.696 2.166-3.378 4.54-3.355 4.432.025-.115 1.665-3.148 3.252-5.145 1.585-1.996 3.457-3.722 3.457-3.722.096.008.108.08.053.206.152-.018.18.164.295.322.277.372.263 1.772.263 1.772-.228.792-1.014.477-1.495.145zm.234 2.156c-.111-.092.118-.569.51-1.064.394-.495.803-.822.914-.728.112.092-.117.567-.51 1.063-.394.495-.803.82-.914.729zm1.766.131c-.255.32-.605.461-.783.313-.178-.148-.116-.527.14-.848.254-.321.604-.461.783-.313.177.148.115.527-.14.848zm-6.877 14.76c.19-.242.458-.343.598-.226.14.116.098.404-.093.645s-.459.342-.599.226c-.139-.116-.097-.405.094-.646zm-.397 1.027c.562.064.491 1.118-1.26 3.113-1.751 1.995-3.506 3.614-7.415 8.956-3.908 5.343-4.725 6.39-5.232 5.969-.507-.422 1.29-2.717 2.504-4.21 1.216-1.493 2.121-1.992 5.164-5.62 3.044-3.626 4.875-5.79 5.188-6.884.311-1.093.626-1.373 1.05-1.324zm8.963-3.308s-.264.186-2.982-2.073c-2.663-2.212-2.302-2.316-2.302-2.316.352.08.818.036 1.06-.268l6.02-7.58c.312-.394.126-1.081-.21-1.443.037.024.005-.014.038.014 0 0 .22-.223 2.946 2.041 2.86 2.376 2.64 2.6 2.64 2.6.034.028.165.147.195.179-.416-.263-.837-.08-1.15.316l-6.02 7.578c-.24.304-.386.615-.235.952zm.26.825c-.14-.285 1.45-2.246 2.843-4s3.822-5.107 4.084-4.89c.262.218-1.838 2.904-3.675 5.216-1.837 2.313-3.252 3.674-3.252 3.674zm6.861-5.986c-.255.321-.597.47-.763.331-.167-.138-.096-.511.16-.831.255-.321.596-.469.763-.33.166.138.095.51-.16.83zm2.338.71c-.858 1.079-1.521 1.71-1.409 1.399.115-.311 1.386-1.757 1.13-2.038-.144-.157-.291-.037-.456.175l-.11.147c-.098.138-.202.292-.316.434a1.657 1.657 0 01-.093.103c-.338.436-.707.902-1.058 1.346-1.158 1.459-2.04 2.325-2.04 2.325-.076-.17.993-1.35 1.872-2.456.41-.518 1.03-1.198 1.524-1.82l.002-.002s.645-1.17.99-1.259c.022-.011.007-.044.017-.035.32.028.805.6-.053 1.68zM0 40.63v-.475a2.78 2.78 0 000 .475zM1.83 42h-.742c.226.05.477.049.741 0z" filter="url(#d)" mask="url(&quot;#e&quot;)"/></svg>