<svg xmlns="http://www.w3.org/2000/svg" width="18" height="19" viewBox="0 0 18 19"><defs><mask id="ue10b" width="2" height="2" x="-1" y="-1"><path fill="#fff" d="M0 0h18v18H0z"/><path d="M9 0c4.97 0 9 3.938 9 8.796 0 4.859-4.03 8.797-9 8.797s-9-3.938-9-8.797C0 3.938 4.03 0 9 0z"/></mask><filter id="ue10a" width="38" height="39" x="-10" y="-10" filterUnits="userSpaceOnUse"><feOffset dy="1" in="SourceGraphic" result="FeOffset1308Out"/><feGaussianBlur in="FeOffset1308Out" result="FeGaussianBlur1309Out" stdDeviation="0 0"/></filter><clipPath id="ue10c"><path fill="#fff" d="M9 0c4.97 0 9 3.938 9 8.796 0 4.859-4.03 8.797-9 8.797s-9-3.938-9-8.797C0 3.938 4.03 0 9 0z"/></clipPath></defs><g><g><g filter="url(#ue10a)"><path fill="none" d="M9 0c4.97 0 9 3.938 9 8.796 0 4.859-4.03 8.797-9 8.797s-9-3.938-9-8.797C0 3.938 4.03 0 9 0z" mask="url(&quot;#ue10b&quot;)"/></g><path fill="none" stroke="#bb9c66" stroke-linecap="round" stroke-linejoin="round" stroke-miterlimit="20" stroke-width="4" d="M9 0c4.97 0 9 3.938 9 8.796 0 4.859-4.03 8.797-9 8.797s-9-3.938-9-8.797C0 3.938 4.03 0 9 0z" clip-path="url(&quot;#ue10c&quot;)"/></g></g></svg>