<svg width="96" height="96" viewBox="0 0 96 96" fill="none" xmlns="http://www.w3.org/2000/svg">
<path d="M87 18H18C16.0116 18.0022 14.1052 18.7931 12.6992 20.1992C11.2931 21.6052 10.5022 23.5116 10.5 25.5V28.5H9C7.01156 28.5022 5.1052 29.2931 3.69917 30.6992C2.29313 32.1052 1.50223 34.0116 1.5 36V72C1.50223 73.9884 2.29313 75.8948 3.69917 77.3008C5.1052 78.7069 7.01156 79.4978 9 79.5H78C79.9884 79.4978 81.8948 78.7069 83.3008 77.3008C84.7069 75.8948 85.4978 73.9884 85.5 72V69H87C88.9884 68.9978 90.8948 68.2069 92.3008 66.8008C93.7069 65.3948 94.4978 63.4884 94.5 61.5V25.5C94.4978 23.5116 93.7069 21.6052 92.3008 20.1992C90.8948 18.7931 88.9884 18.0022 87 18V18ZM9 31.5H78C79.1931 31.5013 80.3369 31.9759 81.1805 32.8195C82.0241 33.6631 82.4987 34.8069 82.5 36H4.5C4.50134 34.8069 4.97588 33.6631 5.8195 32.8195C6.66312 31.9759 7.80694 31.5013 9 31.5ZM4.5 39H82.5V46.5H4.5V39ZM82.5 72C82.4987 73.1931 82.0241 74.3369 81.1805 75.1805C80.3369 76.0241 79.1931 76.4987 78 76.5H9C7.80694 76.4987 6.66312 76.0241 5.8195 75.1805C4.97588 74.3369 4.50134 73.1931 4.5 72V49.5H82.5V72ZM91.5 61.5C91.4987 62.6931 91.0241 63.8369 90.1805 64.6805C89.3369 65.5241 88.1931 65.9987 87 66H85.5V36C85.4978 34.0116 84.7069 32.1052 83.3008 30.6992C81.8948 29.2931 79.9884 28.5022 78 28.5H13.5V25.5C13.5013 24.3069 13.9759 23.1631 14.8195 22.3195C15.6631 21.4759 16.8069 21.0013 18 21H87C88.1931 21.0013 89.3369 21.4759 90.1805 22.3195C91.0241 23.1631 91.4987 24.3069 91.5 25.5V61.5Z" fill="white"/>
<path d="M23.9998 55.5C22.7051 55.4992 21.4256 55.7795 20.2498 56.3216C18.8786 55.6917 17.3711 55.4167 15.8658 55.5219C14.3605 55.627 12.9059 56.1089 11.6356 56.9233C10.3652 57.7377 9.32009 58.8584 8.5962 60.1824C7.87231 61.5063 7.49292 62.9911 7.49292 64.5C7.49292 66.0089 7.87231 67.4937 8.5962 68.8176C9.32009 70.1416 10.3652 71.2623 11.6356 72.0767C12.9059 72.8911 14.3605 73.373 15.8658 73.4781C17.3711 73.5833 18.8786 73.3083 20.2498 72.6784C21.4722 73.2389 22.8046 73.5183 24.1492 73.4962C25.4938 73.474 26.8163 73.1507 28.0195 72.5501C29.2227 71.9496 30.276 71.087 31.1019 70.0257C31.9279 68.9645 32.5055 67.7317 32.7923 66.4179C33.0791 65.1041 33.0678 63.7427 32.7593 62.4338C32.4507 61.1249 31.8527 59.9018 31.0092 58.8545C30.1657 57.8071 29.0983 56.9622 27.8853 56.3816C26.6723 55.8011 25.3446 55.4999 23.9998 55.5V55.5ZM22.4998 64.5C22.4998 65.3987 22.2975 66.2859 21.908 67.0958C21.5185 67.9057 20.9518 68.6176 20.2498 69.1787C19.5478 68.6176 18.981 67.9057 18.5915 67.0958C18.2021 66.2859 17.9998 65.3987 17.9998 64.5C17.9998 63.6013 18.2021 62.7141 18.5915 61.9042C18.981 61.0943 19.5478 60.3824 20.2498 59.8213C20.9518 60.3824 21.5185 61.0943 21.908 61.9042C22.2975 62.7141 22.4998 63.6013 22.4998 64.5ZM10.4998 64.5C10.4983 63.6478 10.6786 62.8051 11.0288 62.0282C11.3789 61.2512 11.8909 60.558 12.5304 59.9947C13.1699 59.4315 13.9222 59.0112 14.7372 58.7619C15.5521 58.5126 16.4108 58.4402 17.256 58.5493C15.8024 60.1907 14.9998 62.3075 14.9998 64.5C14.9998 66.6926 15.8024 68.8093 17.256 70.4507C16.4108 70.5598 15.5521 70.4874 14.7372 70.2381C13.9222 69.9888 13.1699 69.5685 12.5304 69.0053C11.8909 68.442 11.3789 67.7488 11.0288 66.9718C10.6786 66.1949 10.4983 65.3522 10.4998 64.5V64.5ZM23.9998 70.5C23.747 70.4994 23.4944 70.483 23.2436 70.4507C24.6972 68.8093 25.4998 66.6926 25.4998 64.5C25.4998 62.3075 24.6972 60.1907 23.2436 58.5493C24.0577 58.4443 24.8846 58.5074 25.6733 58.7348C26.462 58.9622 27.1956 59.349 27.8289 59.8712C28.4621 60.3935 28.9814 61.0401 29.3547 61.7711C29.728 62.5021 29.9474 63.302 29.9992 64.1211C30.0511 64.9403 29.9343 65.7614 29.6561 66.5336C29.3779 67.3058 28.9442 68.0128 28.3818 68.6107C27.8195 69.2086 27.1405 69.6847 26.3867 70.0097C25.633 70.3347 24.8206 70.5016 23.9998 70.5Z" fill="white"/>
<path d="M76.5 57H51C50.6022 57 50.2206 57.158 49.9393 57.4393C49.658 57.7206 49.5 58.1022 49.5 58.5C49.5 58.8978 49.658 59.2794 49.9393 59.5607C50.2206 59.842 50.6022 60 51 60H76.5C76.8978 60 77.2794 59.842 77.5607 59.5607C77.842 59.2794 78 58.8978 78 58.5C78 58.1022 77.842 57.7206 77.5607 57.4393C77.2794 57.158 76.8978 57 76.5 57Z" fill="white"/>
<path d="M76.5 61.5H57C56.6022 61.5 56.2206 61.658 55.9393 61.9393C55.658 62.2206 55.5 62.6022 55.5 63C55.5 63.3978 55.658 63.7794 55.9393 64.0607C56.2206 64.342 56.6022 64.5 57 64.5H76.5C76.8978 64.5 77.2794 64.342 77.5607 64.0607C77.842 63.7794 78 63.3978 78 63C78 62.6022 77.842 62.2206 77.5607 61.9393C77.2794 61.658 76.8978 61.5 76.5 61.5Z" fill="white"/>
<path d="M67.5 66H66C65.6022 66 65.2206 66.158 64.9393 66.4393C64.658 66.7206 64.5 67.1022 64.5 67.5C64.5 67.8978 64.658 68.2794 64.9393 68.5607C65.2206 68.842 65.6022 69 66 69H67.5C67.8978 69 68.2794 68.842 68.5607 68.5607C68.842 68.2794 69 67.8978 69 67.5C69 67.1022 68.842 66.7206 68.5607 66.4393C68.2794 66.158 67.8978 66 67.5 66Z" fill="white"/>
<path d="M76.5 66H72C71.6022 66 71.2206 66.158 70.9393 66.4393C70.658 66.7206 70.5 67.1022 70.5 67.5C70.5 67.8978 70.658 68.2794 70.9393 68.5607C71.2206 68.842 71.6022 69 72 69H76.5C76.8978 69 77.2794 68.842 77.5607 68.5607C77.842 68.2794 78 67.8978 78 67.5C78 67.1022 77.842 66.7206 77.5607 66.4393C77.2794 66.158 76.8978 66 76.5 66Z" fill="white"/>
</svg>
