<svg width="96" height="96" viewBox="0 0 96 96" fill="none" xmlns="http://www.w3.org/2000/svg">
<g clip-path="url(#clip0)">
<path d="M94.1337 76.3354L83.4911 69.2398L74.0302 62.9336C72.2043 61.7188 69.7505 62.1171 68.4026 63.8473L62.5484 71.3733C61.2908 73.0064 59.0286 73.4757 57.2253 72.4773C53.253 70.2676 48.5556 68.1871 38.1911 57.8093C27.8266 47.4315 25.7328 42.7474 23.5231 38.7751C22.5247 36.9718 22.994 34.7096 24.6271 33.4522L32.1531 27.598C33.8831 26.2503 34.2816 23.7965 33.0668 21.9704L26.9543 12.8009L19.665 1.86673C18.4243 0.00562882 15.9407 -0.553115 14.0226 0.597184L5.61596 5.6405C3.34405 6.97905 1.674 9.14052 0.951761 11.6768C-1.34715 20.0585 -1.81064 38.5482 27.8215 68.1804C57.4537 97.8125 75.9417 97.3476 84.3234 95.0485C86.8597 94.3264 89.0212 92.6564 90.3597 90.3843L95.403 81.9778C96.5535 80.0595 95.9948 77.5761 94.1337 76.3354Z" fill="white"/>
<path d="M54.6199 14.8962C70.1526 14.9135 82.7402 27.5009 82.7575 43.0338C82.7575 43.9479 83.4985 44.6891 84.4127 44.6891C85.3268 44.6891 86.068 43.9481 86.068 43.0338C86.0488 25.6736 71.9803 11.6051 54.6201 11.5859C53.706 11.5859 52.9648 12.3269 52.9648 13.2412C52.9647 14.155 53.7056 14.8962 54.6199 14.8962Z" fill="white"/>
<path d="M54.6198 24.8271C64.6703 24.8389 72.8146 32.9834 72.8264 43.0337C72.8264 43.9477 73.5674 44.6889 74.4817 44.6889C75.3957 44.6889 76.1369 43.9479 76.1369 43.0337C76.1232 31.1559 66.4978 21.5303 54.6198 21.5166C53.7058 21.5166 52.9646 22.2576 52.9646 23.1718C52.9646 24.0861 53.7056 24.8271 54.6198 24.8271Z" fill="white"/>
<path d="M54.6199 34.758C59.1883 34.7635 62.8902 38.4654 62.8957 43.0338C62.8957 43.9479 63.6367 44.689 64.5509 44.689C65.4649 44.689 66.2061 43.948 66.2061 43.0338C66.1988 36.6381 61.0158 31.4551 54.6201 31.4478C53.706 31.4478 52.9648 32.1887 52.9648 33.103C52.9647 34.017 53.7056 34.758 54.6199 34.758Z" fill="white"/>
</g>
<defs>
<clipPath id="clip0">
<rect width="96" height="96" fill="white"/>
</clipPath>
</defs>
</svg>
