<svg width="96" height="96" viewBox="0 0 96 96" fill="none" xmlns="http://www.w3.org/2000/svg">
<path d="M84 90H12C11.6022 90 11.2206 90.158 10.9393 90.4393C10.658 90.7206 10.5 91.1022 10.5 91.5C10.5 91.8978 10.658 92.2794 10.9393 92.5607C11.2206 92.842 11.6022 93 12 93H84C84.3978 93 84.7794 92.842 85.0607 92.5607C85.342 92.2794 85.5 91.8978 85.5 91.5C85.5 91.1022 85.342 90.7206 85.0607 90.4393C84.7794 90.158 84.3978 90 84 90Z" fill="white"/>
<path d="M92.5604 3.43918C92.2791 3.15797 91.8976 3 91.4999 3C91.1021 3 90.7207 3.15797 90.4394 3.43918L87.6959 6.18118C86.8506 7.02279 85.7072 7.49664 84.5144 7.49968H11.4854C10.2926 7.49664 9.14917 7.02279 8.30388 6.18118L5.56038 3.43918C5.27748 3.16594 4.89857 3.01475 4.50528 3.01817C4.11198 3.02159 3.73576 3.17934 3.45765 3.45745C3.17954 3.73556 3.02178 4.11178 3.01837 4.50508C3.01495 4.89837 3.16614 5.27728 3.43938 5.56018L6.18288 8.30218C6.87757 9.0008 7.7039 9.55474 8.61407 9.93193C9.52423 10.3091 10.5002 10.5021 11.4854 10.4997H84.5144C85.4996 10.5021 86.4755 10.3091 87.3857 9.93193C88.2959 9.55474 89.1222 9.0008 89.8169 8.30218L92.5604 5.56018C92.8416 5.27889 92.9996 4.89743 92.9996 4.49968C92.9996 4.10193 92.8416 3.72047 92.5604 3.43918V3.43918Z" fill="white"/>
<path d="M60 22.5V21C60 19.8065 60.4741 18.6619 61.318 17.818C62.1619 16.9741 63.3065 16.5 64.5 16.5H81C81.3978 16.5 81.7794 16.342 82.0607 16.0607C82.342 15.7794 82.5 15.3978 82.5 15C82.5 14.6022 82.342 14.2206 82.0607 13.9393C81.7794 13.658 81.3978 13.5 81 13.5H64.5C62.5116 13.5024 60.6053 14.2933 59.1993 15.6993C57.7933 17.1053 57.0024 19.0116 57 21V22.5C57 22.8978 57.158 23.2794 57.4393 23.5607C57.7206 23.842 58.1022 24 58.5 24C58.8978 24 59.2794 23.842 59.5607 23.5607C59.842 23.2794 60 22.8978 60 22.5Z" fill="white"/>
<path d="M37.5 24C37.8978 24 38.2794 23.842 38.5607 23.5607C38.842 23.2794 39 22.8978 39 22.5V21C38.9976 19.0116 38.2067 17.1053 36.8007 15.6993C35.3947 14.2933 33.4884 13.5024 31.5 13.5H15C14.6022 13.5 14.2206 13.658 13.9393 13.9393C13.658 14.2206 13.5 14.6022 13.5 15C13.5 15.3978 13.658 15.7794 13.9393 16.0607C14.2206 16.342 14.6022 16.5 15 16.5H31.5C32.6935 16.5 33.8381 16.9741 34.682 17.818C35.5259 18.6619 36 19.8065 36 21V22.5C36 22.8978 36.158 23.2794 36.4393 23.5607C36.7206 23.842 37.1022 24 37.5 24Z" fill="white"/>
<path d="M86.295 78.7196L82.965 47.1446C82.3962 41.6122 79.7933 36.4882 75.661 32.7661C71.5287 29.044 66.1615 26.989 60.6 26.9996H35.4C29.8385 26.989 24.4713 29.044 20.339 32.7661C16.2067 36.4882 13.6038 41.6122 13.035 47.1446L9.70498 78.7196C9.5986 79.7636 9.71201 80.8185 10.0379 81.8161C10.3638 82.8137 10.8949 83.732 11.5972 84.512C12.2994 85.2919 13.1572 85.9162 14.1153 86.3446C15.0733 86.7731 16.1105 86.9962 17.16 86.9996H78.84C79.8895 86.9962 80.9266 86.7731 81.8847 86.3446C82.8428 85.9162 83.7005 85.2919 84.4028 84.512C85.105 83.732 85.6362 82.8137 85.9621 81.8161C86.288 80.8185 86.4014 79.7636 86.295 78.7196V78.7196ZM82.185 82.5145C81.7643 82.9847 81.2485 83.3601 80.6719 83.6161C80.0953 83.8721 79.4709 84.0028 78.84 83.9996H17.16C16.5296 84.0011 15.906 83.8697 15.3298 83.6139C14.7536 83.3582 14.2378 82.9839 13.816 82.5154C13.3943 82.0469 13.076 81.4948 12.882 80.895C12.6879 80.2953 12.6225 79.6613 12.69 79.0345L16.02 47.4596C16.5096 42.664 18.764 38.2216 22.3454 34.995C25.9268 31.7684 30.5795 29.988 35.4 29.9996H60.6C65.4205 29.988 70.0732 31.7684 73.6546 34.995C77.2359 38.2216 79.4904 42.664 79.98 47.4596L83.31 79.0345C83.3774 79.6611 83.312 80.2948 83.1182 80.8944C82.9243 81.494 82.6064 82.046 82.185 82.5145Z" fill="white"/>
<path d="M48 37.5C43.8466 37.5 39.7865 38.7316 36.333 41.0391C32.8796 43.3466 30.188 46.6264 28.5985 50.4637C27.0091 54.3009 26.5932 58.5233 27.4035 62.5969C28.2138 66.6705 30.2139 70.4123 33.1508 73.3492C36.0877 76.2861 39.8295 78.2862 43.9031 79.0965C47.9767 79.9068 52.1991 79.4909 56.0364 77.9015C59.8736 76.312 63.1534 73.6204 65.4609 70.167C67.7684 66.7135 69 62.6534 69 58.5C68.994 52.9323 66.7796 47.5943 62.8427 43.6573C58.9057 39.7204 53.5677 37.506 48 37.5ZM49.5 76.425V73.5C49.5 73.1022 49.342 72.7206 49.0607 72.4393C48.7794 72.158 48.3978 72 48 72C47.6022 72 47.2206 72.158 46.9393 72.4393C46.658 72.7206 46.5 73.1022 46.5 73.5V76.425C42.2634 76.068 38.2899 74.2229 35.2835 71.2165C32.2772 68.2101 30.432 64.2366 30.075 60H33C33.3978 60 33.7794 59.842 34.0607 59.5607C34.342 59.2794 34.5 58.8978 34.5 58.5C34.5 58.1022 34.342 57.7206 34.0607 57.4393C33.7794 57.158 33.3978 57 33 57H30.075C30.432 52.7634 32.2772 48.7899 35.2835 45.7835C38.2899 42.7771 42.2634 40.932 46.5 40.575V43.5C46.5 43.8978 46.658 44.2794 46.9393 44.5607C47.2206 44.842 47.6022 45 48 45C48.3978 45 48.7794 44.842 49.0607 44.5607C49.342 44.2794 49.5 43.8978 49.5 43.5V40.575C53.7366 40.932 57.7101 42.7771 60.7165 45.7835C63.7229 48.7899 65.568 52.7634 65.925 57H63C62.6022 57 62.2206 57.158 61.9393 57.4393C61.658 57.7206 61.5 58.1022 61.5 58.5C61.5 58.8978 61.658 59.2794 61.9393 59.5607C62.2206 59.842 62.6022 60 63 60H65.925C65.568 64.2366 63.7229 68.2101 60.7165 71.2165C57.7101 74.2229 53.7366 76.068 49.5 76.425V76.425Z" fill="white"/>
<path d="M49.4551 49.1363C49.3738 48.812 49.1865 48.5241 48.9228 48.3184C48.6592 48.1127 48.3344 48.001 48.0001 48.001C47.6657 48.001 47.3409 48.1127 47.0773 48.3184C46.8137 48.5241 46.6264 48.812 46.5451 49.1363L43.5451 61.1363C43.4899 61.3574 43.4859 61.5881 43.5332 61.811C43.5806 62.0339 43.6781 62.243 43.8183 62.4226C43.9586 62.6022 44.1379 62.7474 44.3426 62.8474C44.5474 62.9473 44.7722 62.9993 45.0001 62.9993H51.0001C51.2279 62.9993 51.4528 62.9473 51.6575 62.8474C51.8623 62.7474 52.0416 62.6022 52.1818 62.4226C52.3221 62.243 52.4196 62.0339 52.4669 61.811C52.5143 61.5881 52.5102 61.3574 52.4551 61.1363L49.4551 49.1363ZM46.9216 59.9993L48.0001 55.6838L49.0786 59.9993H46.9216Z" fill="white"/>
</svg>
