<svg width="96" height="96" viewBox="0 0 96 96" fill="none" xmlns="http://www.w3.org/2000/svg">
<g clip-path="url(#clip0)">
<path d="M76.8672 23.5549C76.4546 23.0392 75.7326 22.8329 75.0106 23.1424L72.3289 24.1738L64.0775 5.91754C63.7681 5.29869 63.2523 4.98926 62.6335 4.98926H35.8164C35.3007 4.98926 34.8881 5.19554 34.5787 5.60811L19.4167 23.7612C19.1073 24.0706 19.0041 24.5864 19.1073 24.9989C19.2104 25.4115 19.4167 25.8241 19.7261 26.1335L34.8881 37.376C35.6101 37.8918 36.6415 37.7886 37.1572 37.0666L47.0589 23.6581L51.8035 32.1158L48.8124 33.6629C48.1935 33.9723 47.8841 34.5912 47.9872 35.21C48.0904 35.8289 48.5029 36.4478 49.2249 36.5509L66.1403 40.6766C66.2435 40.6766 66.3466 40.6766 66.5529 40.6766C67.0686 40.6766 67.5843 40.3672 67.8938 39.9546L76.9703 25.4115C77.3829 24.7926 77.2797 24.0706 76.8672 23.5549ZM35.507 33.766L23.0267 24.4832L36.6415 8.18668H38.8075L45.5118 20.6669L35.507 33.766ZM65.6246 37.376L54.1758 34.5912L54.7946 34.2818C55.2072 34.0755 55.5166 33.7661 55.6198 33.3535C55.7229 32.9409 55.7229 32.5283 55.5166 32.1158L48.7092 19.9449L42.3144 8.08354H61.4989L69.9566 26.8555C70.266 27.4743 70.988 27.8869 71.6069 27.7838L65.6246 37.376Z" fill="white"/>
<path d="M41.1797 65.225L24.4706 64.503L28.8026 55.8391L31.6906 57.4893C32.3094 57.7988 33.0314 57.7988 33.5471 57.283C34.0629 56.8705 34.2691 56.1485 33.9597 55.5296L27.8743 39.2331C27.668 38.6142 27.0492 38.2017 26.3272 38.2017L9.10234 38.8205C8.38034 38.8205 7.86463 39.3362 7.65834 39.9551C7.45206 40.5739 7.76148 41.2959 8.2772 41.7085L10.6495 43.3588L0.232071 60.4805C-0.077357 60.9962 -0.077357 61.7182 0.232071 62.2339L11.784 79.2524L16.2192 85.9567C16.5286 86.3693 17.0443 86.6787 17.56 86.6787H41.0766C42.0048 86.6787 42.7268 85.9567 42.7268 85.0284V66.8753C42.7268 66.0502 42.0048 65.3282 41.1797 65.225ZM14.2595 77.1896L3.53264 61.3056L14.3626 43.7714C14.7752 43.1525 14.672 42.4305 14.1563 41.9148L25.3989 41.3991L29.5246 52.5385L28.9057 52.2291C28.4932 52.0228 28.0806 51.9196 27.668 52.1259C27.2554 52.2291 26.946 52.5385 26.7397 52.9511L20.5512 65.3282L14.2595 77.1896ZM39.4263 83.4813H18.3852L16.3223 80.2839L22.9235 67.7005L39.4263 68.4225V83.4813Z" fill="white"/>
<path d="M95.8452 59.8618L85.5309 38.6144C85.3246 38.2018 85.0152 37.8924 84.6026 37.7892C84.19 37.6861 83.7775 37.6861 83.3649 37.9955L66.8621 47.1752C66.1401 47.5878 65.8307 48.6192 66.2432 49.3412L74.2883 63.8843L64.5929 64.7095L64.4898 61.4089C64.4898 60.6869 63.9741 60.1712 63.3552 59.9649C62.7364 59.7586 62.0144 59.9649 61.6018 60.4806L50.875 74.1986C50.4624 74.7143 50.4624 75.5394 50.7718 76.0552L60.3641 90.2888C60.6735 90.7014 61.1892 91.0108 61.705 91.0108C61.8081 91.0108 62.0144 91.0108 62.1175 90.9077C62.7364 90.7014 63.2521 90.0826 63.2521 89.4637L63.3552 86.5757H83.3649C83.9838 86.5757 84.6026 86.1631 84.8089 85.6474L95.8452 61.2026C96.0514 60.79 96.0514 60.2743 95.8452 59.8618ZM82.5398 83.4814H62.0144C61.2924 83.4814 60.6735 83.9971 60.4672 84.616L54.1755 75.23L61.4987 65.844V66.566C61.4987 66.9786 61.705 67.3912 62.0144 67.7006C62.3238 68.01 62.7364 68.1132 63.2521 68.1132L77.0732 66.8755L90.4817 65.9472L82.5398 83.4814ZM91.8226 62.5435L77.6921 63.5749L69.7501 49.1349L83.3649 41.5024L92.7509 60.5838L91.8226 62.5435Z" fill="white"/>
</g>
<defs>
<clipPath id="clip0">
<rect width="96" height="96" fill="white"/>
</clipPath>
</defs>
</svg>
