<svg width="62" height="49" viewBox="0 0 62 49" fill="none" xmlns="http://www.w3.org/2000/svg">
<path d="M60.4387 -1.32911C59.4406 -2.51861 58.0792 -3.29167 56.5184 -3.5806L55.7853 -13.5305C56.5085 -13.5374 57.1252 -14.0583 57.2512 -14.7721L57.5339 -16.3754C57.8369 -18.094 57.4143 -19.7905 56.3743 -21.0297C55.3355 -22.2676 53.8147 -22.9495 52.0918 -22.9495H41.0566L41.5938 -25.9955C41.7462 -26.8606 41.5254 -27.7244 40.988 -28.3649C40.4559 -28.999 39.6558 -29.3628 38.7929 -29.3628H-15.5267C-17.1331 -29.3628 -18.6117 -28.1131 -18.8931 -26.5173L-23.6989 0.739019C-23.8429 1.55652 -23.2971 2.33614 -22.4796 2.48014C-22.3915 2.4957 -22.3038 2.50321 -22.2169 2.50321C-21.5013 2.50321 -20.8669 1.99002 -20.7385 1.26083L-15.9325 -25.9955C-15.9008 -26.1749 -15.6698 -26.3568 -15.5269 -26.3568L38.6047 -26.3566L33.827 0.739019C33.6828 1.55652 34.2286 2.33614 35.0463 2.48014C35.8629 2.62395 36.6434 2.07833 36.7874 1.26083L37.1339 -0.703983H55.1088C55.1094 -0.703983 55.1101 -0.703983 55.1109 -0.703983C55.1116 -0.703983 55.1124 -0.703983 55.1129 -0.703983C56.3553 -0.703796 57.4287 -0.239729 58.1358 0.602709C58.6224 1.18265 58.9063 1.90452 58.9745 2.70308H53.9816C53.252 2.70308 52.628 3.22677 52.5012 3.94527L51.9359 7.15189C51.7081 8.44377 52.0299 9.72383 52.8185 10.6638C53.5963 11.591 54.7769 12.1225 56.0574 12.1225H57.4726L56.3064 18.7362H52.3379C52.0767 17.4134 51.5051 16.1967 50.6386 15.1645C49.1013 13.3321 46.8389 12.3231 44.2689 12.3231C40.1478 12.3231 36.1719 15.0194 34.3106 18.7364H33.7063L35.6568 7.67408C35.8008 6.85658 35.2552 6.07695 34.4375 5.93295C33.6204 5.78858 32.8404 6.33458 32.6964 7.15227L30.6538 18.7366H2.82837C2.56719 17.4138 1.9955 16.1973 1.12906 15.1649C-0.408438 13.3325 -2.67062 12.3235 -5.24087 12.3235C-9.36194 12.3235 -13.3379 15.0198 -15.1992 18.7368L-23.8201 18.7366L-23.2193 15.3297H-16.4639C-15.6338 15.3297 -14.9607 14.6568 -14.9607 13.8265C-14.9607 12.9965 -15.6336 12.3233 -16.4639 12.3233H-32.4968C-33.3269 12.3233 -34 12.9963 -34 13.8265C-34 14.6566 -33.3271 15.3297 -32.4968 15.3297H-26.2716L-26.8088 18.3756C-26.9612 19.2408 -26.7404 20.1046 -26.203 20.7451C-25.6709 21.3792 -24.8708 21.743 -24.0079 21.743H-16.1753C-16.5827 24.2928 -15.9704 26.6948 -14.4376 28.5213C-12.9001 30.3537 -10.6379 31.3626 -8.06763 31.3626C-2.95187 31.3626 1.94244 27.2093 2.84263 22.1039C2.86381 21.983 2.8805 21.8628 2.89737 21.7428H33.3344C32.9268 24.2924 33.5392 26.6945 35.0722 28.5211C36.6097 30.3535 38.8719 31.3625 41.4421 31.3625C46.5579 31.3625 51.4522 27.2091 52.3524 22.1037C52.3736 21.9828 52.3903 21.8626 52.4071 21.7426H57.5681C58.2976 21.7426 58.9216 21.2189 59.0484 20.5004L61.8755 4.46727C62.2591 2.29096 61.7489 0.232395 60.4387 -1.32911ZM37.6644 -3.70961L39.3959 -13.5299H52.7714L53.495 -3.70961H37.6644ZM54.5733 -16.8972L54.5096 -16.5361H39.9258L40.5266 -19.9432H52.0918C52.9106 -19.9432 53.6137 -19.6428 54.0712 -19.0974C54.5456 -18.5322 54.7241 -17.7511 54.5733 -16.8972ZM-0.117812 21.5823C-0.776312 25.3178 -4.34275 28.3566 -8.06763 28.3566C-9.73375 28.3566 -11.1783 27.7289 -12.1347 26.5893C-13.1187 25.4165 -13.4937 23.8238 -13.1905 22.1045C-12.5318 18.3689 -8.96556 15.3301 -5.24069 15.3301C-3.57456 15.3301 -2.13006 15.9578 -1.17362 17.0976C-0.189624 18.2701 0.185375 19.8629 -0.117812 21.5823ZM49.3918 21.5823C48.7331 25.3178 45.1668 28.3566 41.4419 28.3566C39.7758 28.3566 38.3313 27.7289 37.3749 26.5891C36.3909 25.4163 36.0159 23.8236 36.3191 22.1043C36.9776 18.3687 40.544 15.3299 44.2689 15.3299C45.9348 15.3299 47.3795 15.9576 48.3359 17.0975C49.3199 18.2701 49.6949 19.8629 49.3918 21.5823ZM58.0027 9.11708H56.0574V9.11689C55.6563 9.11689 55.3327 8.98377 55.1214 8.73215C54.9022 8.47077 54.8221 8.09521 54.8964 7.67464L55.2429 5.71021H58.6034L58.0027 9.11708Z" fill="white"/>
<path d="M45.3333 19.7347C44.801 19.1006 44.001 18.7368 43.1383 18.7368C41.532 18.7368 40.0533 19.9865 39.7721 21.5821C39.6196 22.4474 39.8401 23.3111 40.3777 23.9518C40.9098 24.5859 41.7099 24.9496 42.5728 24.9496C44.1791 24.9496 45.6577 23.6998 45.9391 22.1043C46.0918 21.239 45.8709 20.3754 45.3333 19.7347Z" fill="white"/>
<path d="M26.6328 12.3237H7.58595C6.75589 12.3237 6.08276 12.9967 6.08276 13.8269C6.08276 14.657 6.7557 15.3301 7.58595 15.3301H26.6328C27.4628 15.3301 28.1359 14.6572 28.1359 13.8269C28.1357 12.9967 27.4628 12.3237 26.6328 12.3237Z" fill="white"/>
<path d="M-0.430785 5.91064H-28.1594C-28.9895 5.91064 -29.6626 6.58358 -29.6626 7.41383C-29.6626 8.24389 -28.9898 8.91702 -28.1594 8.91702H-0.430785C0.399277 8.91702 1.0724 8.24408 1.0724 7.41383C1.0724 6.58358 0.399465 5.91064 -0.430785 5.91064Z" fill="white"/>
<path d="M28.2738 -0.136701L22.7088 -4.94664C22.0807 -5.48927 21.1316 -5.42046 20.5886 -4.79233C20.0456 -4.16421 20.1147 -3.21508 20.7429 -2.67208L23.2531 -0.502329H-14.8606C-15.6906 -0.502329 -16.3638 0.170609 -16.3638 1.00086C-16.3638 1.83092 -15.6908 2.50405 -14.8606 2.50405H22.2999L19.1995 4.55793C18.5073 5.01618 18.3181 5.94899 18.7766 6.64106C19.0657 7.07774 19.5438 7.31418 20.0309 7.31418C20.3159 7.31418 20.6043 7.23318 20.8597 7.06387L28.121 2.25393C28.5132 1.99443 28.7609 1.56618 28.7909 1.09668C28.8209 0.626987 28.6297 0.170611 28.2738 -0.136701Z" fill="white"/>
</svg>
