<svg width="96" height="96" viewBox="0 0 96 96" fill="none" xmlns="http://www.w3.org/2000/svg">
<path d="M66.75 80.4375C65.715 80.4375 64.875 81.2775 64.875 82.3125C64.875 83.3475 65.715 84.1875 66.75 84.1875C67.785 84.1875 68.625 83.3475 68.625 82.3125C68.625 81.2775 67.785 80.4375 66.75 80.4375Z" fill="white"/>
<path d="M29.25 80.4375C28.215 80.4375 27.375 81.2775 27.375 82.3125C27.375 83.3475 28.215 84.1875 29.25 84.1875C30.285 84.1875 31.125 83.3475 31.125 82.3125C31.125 81.2775 30.285 80.4375 29.25 80.4375Z" fill="white"/>
<path d="M83.9334 70.7269C81.8227 67.4599 78.9223 64.8639 75.5246 63.1875C75.2381 62.9214 74.8697 62.7431 74.46 62.6976C72.0024 61.6543 69.4119 61.125 66.75 61.125H61.125V56.1782C64.3802 53.3852 66.7204 49.6858 67.8551 45.5625H68.625C72.7605 45.5625 76.125 42.198 76.125 38.0625C76.125 36.1028 75.3686 34.317 74.1334 32.9794C74.2513 32.8792 74.3664 32.775 74.4771 32.6646C75.5398 31.6018 76.125 30.1894 76.125 28.6875C76.125 26.2194 74.5264 24.1189 72.3107 23.3632C71.6483 14.7412 65.5971 7.37325 57.2655 5.064C56.7718 2.4855 54.6439 0 51.75 0H44.25C41.3561 0 39.2282 2.4855 38.7345 5.064C30.4037 7.37306 24.3531 14.7397 23.6895 23.3606C22.8829 23.6342 22.1432 24.0904 21.5229 24.7104C20.4602 25.7732 19.875 27.1856 19.875 28.6875C19.875 30.4056 20.6501 31.9453 21.8681 32.9779C20.6321 34.3155 19.875 36.102 19.875 38.0625C19.875 42.198 23.2395 45.5625 27.375 45.5625H28.1396C29.0869 49.0044 30.8829 52.1644 33.3885 54.7746C33.8593 55.2654 34.3584 55.7331 34.875 56.1767V61.125H29.25C26.5879 61.125 23.9974 61.6543 21.54 62.6974C21.1305 62.7431 20.7619 62.9212 20.4756 63.1873C17.0775 64.8639 14.1773 67.4599 12.0666 70.7267C9.81506 74.2118 8.625 78.2181 8.625 82.3125V94.125C8.625 95.1604 9.46444 96 10.5 96H85.5C86.5356 96 87.375 95.1604 87.375 94.125V82.3125C87.375 78.2181 86.1849 74.2117 83.9334 70.7269ZM19.875 92.25H12.375V82.3125C12.375 76.6093 15.2966 71.1429 19.875 67.8979V92.25ZM68.625 41.8125H68.5395C68.5954 41.1887 68.625 40.5626 68.625 39.9375V34.3125C70.6927 34.3125 72.375 35.9948 72.375 38.0625C72.375 40.1302 70.6927 41.8125 68.625 41.8125ZM38.625 9.02606V17.4375C38.625 18.4731 39.4644 19.3125 40.5 19.3125C41.5356 19.3125 42.375 18.4731 42.375 17.4375V6.57431C42.375 6.56944 42.375 6.56456 42.375 6.55969V6.1875C42.375 5.02575 43.3564 3.75 44.25 3.75H51.75C52.6436 3.75 53.625 5.02575 53.625 6.1875V6.55969C53.625 6.56456 53.625 6.56944 53.625 6.57431V17.4375C53.625 18.4731 54.4644 19.3125 55.5 19.3125C56.5356 19.3125 57.375 18.4731 57.375 17.4375V9.02606C63.4294 11.1686 67.8 16.6474 68.5202 23.0625H27.4798C28.2 16.6474 32.5706 11.1686 38.625 9.02606ZM27.375 41.8125C25.3073 41.8125 23.625 40.1302 23.625 38.0625C23.625 35.9948 25.3073 34.3125 27.375 34.3125V39.9375C27.375 40.5626 27.4046 41.1889 27.4605 41.8125H27.375ZM27.375 30.5625H25.5C24.4661 30.5625 23.625 29.7214 23.625 28.6875C23.625 28.1873 23.8202 27.7164 24.1746 27.3623C24.5291 27.0077 24.9998 26.8125 25.5 26.8125H70.5C71.5339 26.8125 72.375 27.6536 72.375 28.6875C72.375 29.1877 72.1798 29.6586 71.8254 30.0127C71.4711 30.3673 71.0002 30.5625 70.5 30.5625H68.625H66.75H29.25H27.375ZM31.4657 43.3468C31.4619 43.3264 31.4584 43.3061 31.4539 43.2861C31.2362 42.1856 31.125 41.0593 31.125 39.9375V34.3125H64.875V39.9375C64.875 41.0584 64.7638 42.1839 64.5461 43.2853C64.5416 43.3056 64.5381 43.326 64.5343 43.3464C63.6964 47.529 61.3774 51.273 58.0005 53.8916C55.0669 56.1705 51.6088 57.375 48 57.375C44.3912 57.375 40.9331 56.1705 37.9967 53.8896C37.3245 53.3694 36.6847 52.794 36.0945 52.1784C33.7292 49.7143 32.1294 46.6616 31.4657 43.3468ZM46.125 92.25H31.125V87.9375C31.125 86.9019 30.2856 86.0625 29.25 86.0625C28.2144 86.0625 27.375 86.9019 27.375 87.9375V92.25H23.625V65.9014C24.8419 65.4426 26.0955 65.1368 27.375 64.986V76.6875C27.375 77.7231 28.2144 78.5625 29.25 78.5625C30.2856 78.5625 31.125 77.7231 31.125 76.6875V64.875H35.9466L46.125 75.5625V92.25ZM38.625 62.25V58.7576C41.5183 60.3129 44.7051 61.125 48 61.125C51.2951 61.125 54.4821 60.3128 57.375 58.7578V62.25L48 72.0938L38.625 62.25ZM72.375 92.25H68.625V87.9375C68.625 86.9019 67.7856 86.0625 66.75 86.0625C65.7144 86.0625 64.875 86.9019 64.875 87.9375V92.25H49.875V75.5625L60.0534 64.875H64.875V76.6875C64.875 77.7231 65.7144 78.5625 66.75 78.5625C67.7856 78.5625 68.625 77.7231 68.625 76.6875V64.986C69.9045 65.1368 71.1579 65.4428 72.375 65.9016V92.25ZM83.625 92.25H76.125V67.8977C80.7034 71.1428 83.625 76.6091 83.625 82.3125V92.25Z" fill="white"/>
</svg>
